<svg xmlns="http://www.w3.org/2000/svg" viewBox="0 0 741 390" role="img" aria-label="United States flag">
  <rect width="741" height="390" fill="#b22234"/>
  <g fill="#fff">
    <rect y="30" width="741" height="30"/><rect y="90" width="741" height="30"/><rect y="150" width="741" height="30"/><rect y="210" width="741" height="30"/><rect y="270" width="741" height="30"/><rect y="330" width="741" height="30"/>
  </g>
  <rect width="296" height="210" fill="#3c3b6e"/>
  <g fill="#fff">
    <circle cx="32" cy="30" r="8"/><circle cx="82" cy="30" r="8"/><circle cx="132" cy="30" r="8"/><circle cx="182" cy="30" r="8"/><circle cx="232" cy="30" r="8"/>
    <circle cx="57" cy="70" r="8"/><circle cx="107" cy="70" r="8"/><circle cx="157" cy="70" r="8"/><circle cx="207" cy="70" r="8"/><circle cx="257" cy="70" r="8"/>
    <circle cx="32" cy="110" r="8"/><circle cx="82" cy="110" r="8"/><circle cx="132" cy="110" r="8"/><circle cx="182" cy="110" r="8"/><circle cx="232" cy="110" r="8"/>
    <circle cx="57" cy="150" r="8"/><circle cx="107" cy="150" r="8"/><circle cx="157" cy="150" r="8"/><circle cx="207" cy="150" r="8"/><circle cx="257" cy="150" r="8"/>
  </g>
</svg>
